<?xml version="1.0" encoding="UTF-8"?>
<svg width="1200" height="1200" viewBox="0 0 1200 1200" fill="none" xmlns="http://www.w3.org/2000/svg">
  <rect width="1200" height="1200" fill="#1E293B"/>
  <g opacity="0.8">
    <!-- Stock Chart Background -->
    <rect x="200" y="300" width="800" height="600" fill="#0F172A" rx="8"/>
    
    <!-- Stock Chart Grid Lines -->
    <line x1="200" y1="500" x2="1000" y2="500" stroke="#334155" stroke-width="2"/>
    <line x1="200" y1="700" x2="1000" y2="700" stroke="#334155" stroke-width="2"/>
    <line x1="400" y1="300" x2="400" y2="900" stroke="#334155" stroke-width="2"/>
    <line x1="600" y1="300" x2="600" y2="900" stroke="#334155" stroke-width="2"/>
    <line x1="800" y1="300" x2="800" y2="900" stroke="#334155" stroke-width="2"/>
    
    <!-- Stock Chart Line -->
    <path d="M200 600 L400 550 L600 650 L800 500 L1000 450" 
          stroke="#3B82F6" 
          stroke-width="4" 
          fill="none"/>
    
    <!-- Stock Chart Points -->
    <circle cx="200" cy="600" r="6" fill="#3B82F6"/>
    <circle cx="400" cy="550" r="6" fill="#3B82F6"/>
    <circle cx="600" cy="650" r="6" fill="#3B82F6"/>
    <circle cx="800" cy="500" r="6" fill="#3B82F6"/>
    <circle cx="1000" cy="450" r="6" fill="#3B82F6"/>
    
    <!-- AI Brain Icon -->
    <g transform="translate(500, 1000)">
      <circle cx="0" cy="0" r="40" fill="#3B82F6" opacity="0.2"/>
      <path d="M-20 0 Q0 -20 20 0 Q0 20 -20 0" 
            stroke="#3B82F6" 
            stroke-width="4" 
            fill="none"/>
      <circle cx="-10" cy="0" r="4" fill="#3B82F6"/>
      <circle cx="10" cy="0" r="4" fill="#3B82F6"/>
    </g>
  </g>
</svg> 